<svg preserveAspectRatio="xMidYMid meet" overflow="visible" style="display: block;" width="21.3996" height="27.1492" viewBox="0 0 21.3996 27.1492" fill="none" xmlns="http://www.w3.org/2000/svg">
<g id="Group 5621">
<path id="Vector" d="M9.02832 0.171875C9.45406 0.143194 9.82933 0.253024 10.0615 0.576172C10.2996 0.907598 10.4272 1.39993 10.4658 1.99316C10.5042 2.58262 10.4544 3.25141 10.3574 3.91699C10.3538 3.94175 10.3491 3.96701 10.3447 3.99219C10.3317 4.0668 10.3306 4.14161 10.3486 4.20801C10.3663 4.27289 10.4111 4.35388 10.5039 4.3877C10.5978 4.42173 10.684 4.38703 10.7393 4.34668C10.7952 4.30584 10.8401 4.24632 10.876 4.17969C11.2578 3.46914 11.6651 2.58344 12.2471 1.87598C12.8229 1.17607 13.5503 0.676305 14.5625 0.716797C14.9165 0.730963 15.2369 0.920492 15.5293 1.28809C15.8234 1.65793 16.0781 2.19618 16.2959 2.87109C16.731 4.21977 17.0023 6.0709 17.1631 8.0957C17.4845 12.1421 17.3614 16.8393 17.2471 19.499L17.5586 19.5928C17.8102 19.1719 18.3609 18.7911 18.9854 18.5889C19.6109 18.3864 20.2602 18.3789 20.7061 18.6377C20.8139 18.7003 20.9195 18.8133 21.0088 18.9561C21.0973 19.0976 21.1631 19.2572 21.1963 19.3975C21.3205 19.9229 21.1093 20.4516 20.7188 20.8916C20.3279 21.3319 19.777 21.6585 19.2832 21.7734C18.9898 21.8417 18.5684 21.8896 18.2578 21.8975L18.0479 21.9033L18.0996 22.1064C18.3477 23.0863 18.4192 23.9325 18.3594 24.9492C18.3328 25.4009 18.2906 25.7501 18.1533 26.0283C18.0223 26.2938 17.795 26.51 17.3564 26.6738L16.9727 26.7734C16.2823 26.8457 15.8189 26.9663 15.1445 26.8838C14.8139 26.8434 14.3435 26.7555 13.9941 26.752C13.7944 26.7498 13.573 26.7845 13.3711 26.8125C13.1612 26.8416 12.9665 26.8646 12.793 26.8506L12.7822 26.8496H12.7715C12.5853 26.8584 12.373 26.8304 12.1377 26.8037C11.9116 26.7781 11.6635 26.7539 11.4404 26.7852L11.4355 26.7861C10.8342 26.8904 10.303 26.9701 9.70312 26.9805C9.37132 26.9861 9.06355 26.9476 8.75293 26.8945C8.44826 26.8425 8.12374 26.7731 7.79199 26.7266C7.69103 26.7124 7.57065 26.7208 7.45215 26.7354C7.33103 26.7502 7.19715 26.7743 7.06641 26.7979C6.79478 26.8468 6.54401 26.8924 6.37109 26.8848V26.8838L6.36133 26.8848C5.82157 26.8909 5.32969 26.8963 4.79004 26.8838C4.32269 26.8731 3.78267 26.8933 3.32129 26.7773C3.09471 26.7204 2.90073 26.6328 2.75195 26.502C2.60576 26.3734 2.49398 26.1951 2.44336 25.9385C2.4 25.7183 2.39271 25.4806 2.39844 25.2314C2.40131 25.107 2.4079 24.9812 2.41406 24.8545C2.42017 24.7288 2.42595 24.6016 2.42871 24.4766V24.4756L2.4707 22.418C2.48102 22.001 2.46104 21.5878 2.44043 21.1816C2.41971 20.7733 2.39834 20.3719 2.40527 19.9697L2.4043 19.9688C2.40451 19.9568 2.40446 19.9468 2.4043 19.9443C2.40376 19.9365 2.40319 19.9274 2.40234 19.9189C2.40063 19.9018 2.3979 19.8815 2.39551 19.8623C2.3931 19.843 2.39086 19.8235 2.38867 19.8086C2.38761 19.8013 2.38684 19.7934 2.38574 19.7871C2.38525 19.7843 2.38394 19.7794 2.38281 19.7744C2.3823 19.7721 2.38104 19.7665 2.37891 19.7598C2.37793 19.7567 2.37483 19.7482 2.37012 19.7383C2.36778 19.7334 2.36298 19.7235 2.35547 19.7129C2.34955 19.7045 2.33184 19.68 2.29883 19.6621H2.29785C1.87683 19.436 1.48934 19.2646 1.1582 18.9697C0.754662 18.6104 0.457121 18.0412 0.319336 17.4893L0.270508 17.2549L0.268555 17.2441L0.220703 17C0.180362 16.7436 0.16157 16.4539 0.169922 16.165C0.181101 15.7786 0.240658 15.4056 0.354492 15.1211C0.477894 14.8127 0.614723 14.579 0.790039 14.3926C0.964614 14.207 1.18503 14.0603 1.48633 13.9355C1.5663 13.9024 1.66634 13.8497 1.75977 13.792C1.85164 13.7352 1.94908 13.6662 2.0166 13.5977C2.15501 13.4565 2.20947 13.2785 2.23145 13.1143C2.25303 12.9527 2.24582 12.7825 2.24316 12.6523C2.23967 12.4805 2.12555 12.3841 2.02344 12.334C1.931 12.2887 1.81315 12.2632 1.73828 12.2441C1.69585 12.2333 1.66213 12.2242 1.63574 12.2139C1.63375 12.2131 1.6317 12.2117 1.62988 12.2109C1.66737 12.203 1.71912 12.1969 1.78027 12.1943C1.91433 12.1887 2.04128 12.197 2.11328 12.1973H2.20312L2.25293 12.1221C2.35029 11.9756 2.43604 11.7578 2.51172 11.5186C2.58867 11.2753 2.6604 10.9937 2.72754 10.7119C2.86377 10.1402 2.97747 9.57779 3.07617 9.26465C3.23904 8.76142 3.38252 8.25828 3.56055 7.77344C3.99347 6.59447 4.29506 5.69989 4.91895 4.44824C5.3739 3.53554 5.94696 2.65514 6.48828 1.9541C7.03457 1.24664 7.53401 0.741583 7.83887 0.558594C8.15482 0.369011 8.6015 0.200654 9.02832 0.171875ZM7.38086 15.9961V15.9941C6.93049 16.0002 6.59431 16.0133 6.14746 16.0449L5.98438 16.0566L5.99121 16.2197C6.01978 16.8703 6.028 17.1956 6.27832 17.8359C6.96666 19.5964 9.27912 20.0943 10.75 19.0615C10.9151 18.9456 11.1165 18.7323 11.2393 18.5938V18.5928C11.2491 18.5816 11.2593 18.5708 11.2686 18.5596L11.2705 18.5566C11.5768 18.1645 11.7593 17.808 11.8701 17.4277C11.9799 17.0509 12.0177 16.6572 12.043 16.1973L12.0527 16.0078L11.8643 16.0195C11.7721 16.0256 11.6224 16.0309 11.4883 16.0439C11.3546 16.0569 11.1985 16.0805 11.0791 16.1396C10.9998 16.179 10.9543 16.254 10.9287 16.3027C10.8997 16.3579 10.8756 16.4213 10.8564 16.4775C10.8467 16.5063 10.8378 16.5358 10.8291 16.5625C10.8203 16.5897 10.8116 16.6149 10.8037 16.6377C10.7863 16.6879 10.7752 16.7117 10.7705 16.7188C10.3579 17.3391 9.64599 17.583 9.00098 17.4766C8.39955 17.3772 7.86786 16.9759 7.69727 16.2939L7.66797 16.1543L7.65723 16.1162C7.64318 16.0818 7.61999 16.0578 7.60156 16.043C7.57825 16.0243 7.55462 16.0139 7.54004 16.0088C7.51075 15.9985 7.48154 15.9948 7.46289 15.9932C7.43742 15.991 7.40741 15.9938 7.38086 15.9961ZM1.69824 15.9688C1.36655 15.982 1.03407 15.9853 0.702148 15.9795L0.558594 15.9775L0.53418 16.1191C0.279174 17.5826 1.19895 19.094 2.71289 19.3574L2.71484 19.3584C3.46328 19.4809 4.22997 19.3077 4.85352 18.876L4.85449 18.875L5.16992 18.6299L5.17773 18.6221C5.27538 18.5307 5.40683 18.4069 5.51074 18.2666C5.61311 18.1284 5.70797 17.9496 5.69531 17.749C5.67638 17.4494 5.62513 17.1996 5.60156 16.998C5.5771 16.7888 5.57296 16.5815 5.63672 16.2959L5.33887 16.1572C5.23876 16.2879 5.18716 16.4057 5.14453 16.5098C5.10159 16.6146 5.07141 16.6946 5.01367 16.7832C4.91952 16.9276 4.79351 17.0921 4.60742 17.2266C4.10517 17.5894 3.55718 17.5571 2.98438 17.3066C2.83671 17.242 2.66423 17.1277 2.51172 16.9883C2.35834 16.8481 2.23676 16.693 2.17676 16.5508C2.15716 16.5042 2.12794 16.4125 2.08789 16.3008C2.06953 16.2496 2.04952 16.1961 2.0293 16.1504C2.01272 16.113 1.98421 16.0528 1.94434 16.0127L1.89941 15.9668L1.83496 15.9639L1.76465 15.9609C1.74544 15.9613 1.72449 15.9642 1.69824 15.9688Z" fill="black" stroke="black" stroke-width="0.335818"/>
<path id="Vector_2" d="M3.40359 12.6877C3.54308 11.7116 3.82348 10.7526 4.11002 9.8099C4.23585 9.39587 4.35161 8.9738 4.50408 8.56846C4.79528 7.7944 5.14583 7.0231 5.49916 6.27449C6.02344 5.16366 7.47349 2.24063 8.66644 1.81755C8.84529 1.75413 9.0346 1.71867 9.21258 1.80364C9.38216 1.88459 9.52993 2.05457 9.58805 2.23059C9.69817 2.56419 9.61995 3.17929 9.57488 3.53541C9.51831 3.98235 9.43721 4.34473 9.34479 4.86256C8.8831 7.44951 8.6985 8.39038 8.01394 11.3898C7.98235 11.5283 8.04045 11.6739 8.16735 11.7375C8.37062 11.8394 8.64483 11.9411 8.69314 11.7862C9.55061 9.03582 10.3803 6.19246 11.9538 3.73572C12.3382 3.13548 12.9969 2.34217 13.8013 2.29609C16.8558 2.26394 16.2965 16.5827 16.1603 19.5905C16.1524 19.7634 15.9639 19.8403 15.7922 19.8616C15.5083 19.8967 15.1322 20.2691 15.358 20.442C15.4411 20.5056 15.5733 20.5048 15.6169 20.5164C15.8878 20.587 16.1336 20.7301 16.3269 20.9297C16.5832 21.1918 16.6906 21.4437 16.8457 21.7614C17.2916 22.6612 17.3792 23.6438 17.3773 24.6297C17.3764 25.1453 17.2322 25.919 16.6006 26.0145C15.8665 26.1258 15.0425 26.0693 14.2952 26.0492C14.2564 25.3596 14.3064 24.6648 14.3587 23.9768C14.3905 23.5586 14.9653 23.5922 14.8572 23.2753C14.7721 23.0258 14.5289 23.0057 14.2772 22.9164C13.1121 22.5029 13.6645 24.462 13.656 25.9758C13.0446 26.0645 12.4564 26.0478 11.8423 26.0243C11.8598 25.5281 11.867 25.0315 11.8641 24.535C11.8625 24.0447 11.8352 23.6283 11.9227 23.1485C12.0112 22.6635 11.268 22.3556 11.2141 23.0482C11.1852 23.4188 11.1994 23.7734 11.2007 24.1426C11.2048 24.7558 11.1993 25.369 11.1841 25.9819C10.558 26.0823 8.91255 26.0873 8.27979 26.012C8.17489 25.299 8.26375 24.5421 8.23342 23.821C8.22046 23.5129 8.33965 22.6069 7.79761 22.7419C7.64868 22.7789 7.58189 22.9011 7.51427 23.0245C7.51807 23.0892 7.52628 23.1549 7.53279 23.2197C7.57906 23.6803 7.55243 24.141 7.55104 24.6034C7.55417 25.0527 7.56054 25.5021 7.57014 25.9514C6.8338 26.1281 5.61348 26.0289 4.81355 26.059C4.41154 26.0643 3.74574 26.0875 3.44149 25.784C3.24193 25.5849 3.30379 24.815 3.30272 24.5368C3.3007 24.0185 3.30197 23.5895 3.33747 22.9839C3.35897 22.6171 3.39692 22.4131 3.41309 22.046C3.44696 21.2773 3.34892 20.7415 3.34948 20.0767L3.56689 20.0708C4.7995 20.0337 5.35531 19.6804 6.18628 18.8111C6.97751 19.7555 7.56393 20.1406 8.84601 20.2374C10.4822 20.3607 11.9285 19.2723 12.2563 17.6494C12.3908 16.9834 12.4058 16.9655 12.7118 16.4392C12.9427 16.0422 12.4046 15.7871 12.1341 15.415C11.907 15.1028 11.737 14.8124 11.4775 14.6739C10.1624 13.9722 8.44796 13.9216 7.07347 14.489C6.74005 14.6267 6.55011 14.857 6.36078 15.1473C6.24883 14.9909 6.12169 14.8074 5.97923 14.677C5.23757 13.9984 4.14391 13.9958 3.20918 14.0105C3.23243 13.7805 3.25065 13.55 3.26382 13.3192C3.67332 13.322 4.49305 13.343 4.85519 13.2542C4.91296 13.0603 4.93178 12.8928 4.93758 12.6928C4.65695 12.6658 3.73596 12.6915 3.40359 12.6877Z" fill="#94B634"/>
<path id="Vector_3" d="M19.6782 19.6694C19.9672 19.6458 20.2662 19.7395 20.3107 20.0911C20.3766 20.6125 19.9401 21.0173 19.5457 21.2418C19.2373 21.4173 18.889 21.4789 18.5399 21.5186C18.4389 21.5298 18.3428 21.475 18.2952 21.3852C18.2227 21.2484 18.144 21.1226 18.0561 20.9985C17.9764 20.8858 17.9845 20.7313 18.0801 20.6318C18.5535 20.1396 18.8827 19.7696 19.6782 19.6694Z" fill="white"/>
</g>
</svg>
